# xmcd CD database file
# Copyright (C) 1993-1998 Ti Kan
# 
# Track frame offsets:
#     150
#     9627
#     20417
#     32930
#     47445
#     59962
#     77652
#     95597
#     105927
#     119372
#     136240
#     151605
#     166160
#     183387
# 
# Disc length: 2632 seconds
# 
# Revision: 1
# Processed by: cddbd v1.4b41PL1 Copyright (c) Steve Scherf et al.
# Submitted via: DiscPlay 4.0.4
# 
DISCID=a90a460e
DTITLE=The Jaffo Gate Quartet - Swing Down Sweet Chariot
DYEAR=1900
DGENRE=
TTITLE0=The World Outside
TTITLE1=Great Gettin' Up Morning
TTITLE2=Alabama Bound
TTITLE3=Swing Down
TTITLE4=Shadrack
TTITLE5=Miss Otis Regrets
TTITLE6=I Will Be Home Again
TTITLE7=Joshua
TTITLE8=There Is A Man
TTITLE9=Peace In The Valley
TTITLE10=Down By The Riverside
TTITLE11=There Is A Light
TTITLE12=Only Believe
TTITLE13=Woman At The Well
EXTD=
EXTT0=
EXTT1=
EXTT2=
EXTT3=
EXTT4=
EXTT5=
EXTT6=
EXTT7=
EXTT8=
EXTT9=
EXTT10=
EXTT11=
EXTT12=
EXTT13=
PLAYORDER=
